HIERARCHY
ROOT pelvis
{
  OFFSET 0 100 0
  CHANNELS 6 Xposition Yposition Zposition Zrotation Xrotation Yrotation
  JOINT pelvis_right_femur
  {
    OFFSET -10.78128 -3.44521 -0.5502486
    CHANNELS 3 Zrotation Xrotation Yrotation
    JOINT right_femur_tibia
    {
      OFFSET -0.8047443 -44.0398 -0.1307829
      CHANNELS 3 Zrotation Xrotation Yrotation
      JOINT right_tibia_foot
      {
        OFFSET 3.006224 -47.83518 -5
        CHANNELS 3 Zrotation Xrotation Yrotation
        End Site
        {
          OFFSET 0 -5 15
        }
      }
    }
  }
  JOINT pelvis_left_femur
  {
    OFFSET 10.78128 -3.44521 -0.5502486
    CHANNELS 3 Zrotation Xrotation Yrotation
    JOINT left_femur_tibia
    {
      OFFSET 0.8047443 -44.0398 -0.1307829
      CHANNELS 3 Zrotation Xrotation Yrotation
      JOINT left_tibia_foot
      {
        OFFSET -4.370144 -48.10324 -4.275266
        CHANNELS 3 Zrotation Xrotation Yrotation
        End Site
        {
          OFFSET 0 -5 15
        }
      }
    }
  }
  JOINT pelvis_spine1
  {
    OFFSET 0 6.468898 -3.129235
    CHANNELS 3 Zrotation Xrotation Yrotation
    JOINT spine1
    {
      OFFSET 0 23.15396 4.99043
      CHANNELS 3 Zrotation Xrotation Yrotation
      JOINT spine2
      {
        OFFSET 0 20.79997 -5.064912
        CHANNELS 3 Zrotation Xrotation Yrotation
        JOINT neck
        {
          OFFSET 0 14.38658 9.616178
          CHANNELS 3 Zrotation Xrotation Yrotation
          End Site
          {
            OFFSET 0 20 0
          }
        }
      }
      JOINT right_manubrium
      {
        OFFSET -5.722621 16.35077 3.967754
        CHANNELS 3 Zrotation Xrotation Yrotation
        JOINT right_clavicle
        {
          OFFSET -13.16364 1.694482 -4.693211
          CHANNELS 3 Zrotation Xrotation Yrotation
          JOINT right_humerus
          {
            OFFSET -28.5034 -0.3100689 -2.792744
            CHANNELS 3 Zrotation Xrotation Yrotation
            JOINT right_radius
            {
              OFFSET -25.15693 0.02248979 -1.271978
              CHANNELS 3 Zrotation Xrotation Yrotation
              End Site
              {
                OFFSET -15 0 0
              }
            }
          }
        }
      }
      JOINT left_manubrium
      {
        OFFSET 5.722621 16.35077 3.967754
        CHANNELS 3 Zrotation Xrotation Yrotation
        JOINT left_clavicle
        {
          OFFSET 13.16364 1.694482 -4.693211
          CHANNELS 3 Zrotation Xrotation Yrotation
          JOINT left_humerus
          {
            OFFSET 29.39168 -1.063119 -2.237045
            CHANNELS 3 Zrotation Xrotation Yrotation
            JOINT left_radius
            {
              OFFSET 24.59957 -0.9528479 0.9047498
              CHANNELS 3 Zrotation Xrotation Yrotation
              End Site
              {
                OFFSET 15 -0 -0
              }
            }
          }
        }
      }
    }
  }
}
MOTION
Frames: 15
Frame Time: 0.0416666666667
0 103.5113 0 2.176058 -1.205729 0.281384 1.254474 -10.07488 8.746786 -0 34.67058 -0 -5.271432 -17.98809 -2.38606 -8.026243 10.08878 -23.50468 -0 5.130641 -0 7.691505 -16.13816 26.58615 -4.332223 -5.055845 4.94063 2.015154 9.214721 -7.750156 0.834536 22.82805 7.170299 3.240975 -23.10485 8.813937 6.378134 -19.76721 11.57559 86.30114 35.94527 -19.77813 -0 0 16.26578 -7.578723 8.240573 4.617255 5.493691 -19.48333 -1.685728 -94.80085 29.73953 22.96223 0 0 -15.94859 3.493682 17.9121 9.562949
0.328485 103.5246 1.354387 2.011064 -1.085199 0.460905 1.538709 -11.06247 8.643366 -0 34.40086 -0 -5.317961 -17.61679 -2.388525 -7.864485 10.20554 -23.36882 -0 5.172153 -0 7.571068 -16.38914 26.42788 -4.262759 -4.865563 4.871958 2.106446 9.178304 -7.776694 0.8622004 22.74093 7.178084 3.252884 -23.2486 8.853258 6.368316 -19.72228 11.5783 86.26313 35.91963 -19.80379 -0 0 16.18439 -7.623936 8.268785 4.637988 5.572592 -19.53599 -1.665188 -94.72909 29.68242 22.85091 0 0 -16.18361 3.545306 17.84014 9.527616
0.6696812 103.4668 2.824647 1.78212 -0.8427379 0.5345873 1.896252 -12.53293 8.384577 -0 32.85112 -0 -5.354272 -16.91697 -2.113627 -7.649657 10.33091 -23.10516 -0 5.274714 -0 7.367865 -16.79009 26.16287 -4.198719 -4.589955 4.834731 2.28162 9.103923 -7.780533 0.9277676 22.5666 7.178389 3.293609 -23.46695 8.902643 6.331611 -19.62358 11.59003 86.20523 35.87793 -19.8688 -0 0 16.032 -7.696182 8.313837 4.66222 5.754973 -19.62843 -1.621395 -94.59918 29.59246 22.58125 0 0 -16.66972 3.647948 17.73621 9.425333
1.037517 103.2814 4.469578 1.532813 -0.4540184 0.4776494 2.236427 -14.37828 7.943244 -0 29.56089 -0 -5.363644 -15.79877 -1.472311 -7.435123 10.45621 -22.68779 -0 5.481862 -0 7.074133 -17.35099 25.75879 -4.16034 -4.267801 4.863978 2.526914 8.993057 -7.733936 1.038454 22.3112 7.163732 3.369165 -23.73112 8.95358 6.250991 -19.44982 11.60929 86.14939 35.81961 -19.98904 -0 0 15.79389 -7.794621 8.378378 4.687804 6.05454 -19.77501 -1.544209 -94.39333 29.47441 22.11523 0 0 -17.42718 3.797646 17.60214 9.245945
1.443359 102.9159 6.332994 1.330034 0.07925482 0.3296265 2.447098 -16.38438 7.329092 -0 24.47229 -0 -5.341532 -14.22141 -0.4911054 -7.296736 10.59834 -22.10788 -0 5.852714 -0 6.684607 -18.06405 25.17101 -4.157408 -3.967596 4.971242 2.789616 8.861788 -7.620367 1.184175 22.01961 7.132122 3.472697 -23.98159 8.994609 6.112864 -19.19005 11.62482 86.13835 35.74673 -20.17315 -0 0 15.46431 -7.9139 8.466272 4.7159 6.449363 -19.98871 -1.428053 -94.09429 29.33921 21.45816 0 0 -18.38929 3.969108 17.43904 9.008904
1.889438 102.3473 8.46916 1.211465 0.7354306 0.1576864 2.505594 -18.3071 6.550337 -0 18.02615 -0 -5.309316 -12.34219 0.6959046 -7.262321 10.78654 -21.3672 -0 6.450288 -0 6.169302 -18.86948 24.35758 -4.180671 -3.747675 5.101507 3.011216 8.724515 -7.48818 1.32164 21.75142 7.105857 3.583929 -24.16084 9.016089 5.922899 -18.86958 11.60638 86.21885 35.6658 -20.41652 -0 0 15.04995 -8.044678 8.584098 4.752166 6.880702 -20.25129 -1.294294 -93.70493 29.19244 20.67982 0 0 -19.39977 4.131595 17.24824 8.767734
2.366806 101.595 10.95331 1.17615 1.477322 0.04134466 2.456509 -19.89501 5.635449 -0 10.97323 -0 -5.301376 -10.42532 1.915881 -7.309554 11.04432 -20.47417 -0 7.365858 -0 5.473829 -19.65936 23.27766 -4.196887 -3.646512 5.176268 3.148623 8.589209 -7.410311 1.402445 21.55377 7.11163 3.680176 -24.23146 9.009932 5.703228 -18.51897 11.52682 86.42898 35.58416 -20.71571 -0 0 14.5588 -8.178637 8.739886 4.803471 7.266181 -20.52665 -1.179056 -93.2462 29.03516 19.88146 0 0 -20.26821 4.254879 17.02931 8.584901
2.855824 100.7272 13.86733 1.15039 2.240162 0.08625152 2.410626 -20.88678 4.691919 -0 4.430115 -0 -5.387023 -8.784871 2.995321 -7.329182 11.35933 -19.45136 -0 8.784321 -0 4.507974 -20.23678 21.89338 -4.121762 -3.660912 5.141622 3.20986 8.451754 -7.437972 1.409174 21.41839 7.154108 3.748773 -24.21192 8.970077 5.500102 -18.1328 11.39913 86.77505 35.506 -21.08831 -0 0 13.98822 -8.31647 8.941935 4.874497 7.495139 -20.76678 -1.12348 -92.7723 28.86242 19.18127 0 0 -20.81078 4.312785 16.77499 8.505838
3.333742 99.85807 17.28584 1.050247 2.970613 0.383893 2.457429 -21.05322 3.841113 0 -0.6523794 0 -5.62248 -7.61592 3.809036 -7.208451 11.66082 -18.32954 -0 10.93497 -0 3.197434 -20.33765 20.18722 -3.871499 -3.779123 4.976602 3.217587 8.307134 -7.590338 1.339747 21.31844 7.225107 3.781605 -24.13429 8.889232 5.348052 -17.70242 11.2527 87.23839 35.43432 -21.53776 -0 0 13.34091 -8.467367 9.194726 4.969902 7.485808 -20.92172 -1.15673 -92.34591 28.66595 18.67971 0 0 -20.90769 4.291124 16.47826 8.553916
3.785156 99.14748 21.2574 0.8121361 3.627146 0.9242274 2.616489 -20.16153 3.193974 0 -3.641746 0 -6.052068 -6.935363 4.28474 -6.860668 11.76866 -17.1497 -0 14.15901 -0 1.504591 -19.56526 18.17608 -3.375243 -3.994943 4.702692 3.191934 8.158 -7.844538 1.197388 21.22635 7.305981 3.769517 -24.02315 8.753047 5.25489 -17.23301 11.12985 87.77318 35.37462 -22.02877 -0 0 12.63547 -8.653044 9.498377 5.098001 7.205739 -20.93331 -1.28876 -92.039 28.43053 18.45912 0 0 -20.51767 4.189496 16.13401 8.731291
4.20993 98.74245 25.78153 0.452652 4.094944 1.570346 2.8841 -18.16059 2.802311 0 -4.694607 0 -6.6383 -6.751494 4.471052 -6.345912 11.45414 -15.97024 -0 18.80424 -0 -0.4596278 -17.62079 15.98305 -2.645209 -4.263329 4.428965 3.134753 8.04436 -8.098488 0.9906681 21.15129 7.375252 3.708436 -23.86396 8.54598 5.212136 -16.74415 11.08576 88.31806 35.33337 -22.48368 -0 0 11.91622 -8.896649 9.84851 5.270089 6.696192 -20.78751 -1.496214 -91.88703 28.14662 18.52646 0 0 -19.72443 4.020202 15.74676 9.009565
4.62223 98.72615 30.78007 0.08140458 4.177797 2.056958 3.223992 -15.11942 2.657989 0 -4.629537 0 -7.26748 -7.122119 4.516969 -5.851463 10.39685 -14.85879 -0 25.22636 -0 -2.446719 -14.35933 13.83553 -1.782165 -4.48875 4.350381 3.031342 8.043892 -8.176373 0.735545 21.14158 7.406702 3.601405 -23.60514 8.250079 5.206708 -16.27272 11.18931 88.788 35.32083 -22.77766 -0 0 11.2557 -9.228052 10.23762 5.503689 6.056008 -20.51631 -1.726406 -91.88848 27.80792 18.82292 0 0 -18.71812 3.805553 15.32983 9.333431
5.038063 99.09862 36.10681 -0.1253272 3.755225 2.172544 3.480463 -11.05361 2.635244 0 -4.261799 0 -7.820673 -8.08423 4.549247 -5.475872 8.245968 -13.81178 -0 33.24756 -0 -4.121872 -10.2394 12.04982 -0.9934601 -4.572293 4.617382 2.868723 8.204949 -7.97414 0.4718056 21.25215 7.371891 3.47384 -23.21456 7.861089 5.252899 -15.8861 11.45757 89.07127 35.34816 -22.78044 -0 0 10.73236 -9.689013 10.65314 5.820729 5.376548 -20.19692 -1.924438 -91.97865 27.41434 19.25153 0 0 -17.69708 3.578627 14.9007 9.642132
5.465702 99.77786 41.56114 -0.009209151 2.801345 1.883486 3.464764 -5.990462 2.591009 0 -4.265495 0 -8.185985 -9.604761 4.664607 -5.236594 4.707085 -12.79837 -0 42.19429 -0 -5.234457 -6.084634 10.87131 -0.5186206 -4.439708 5.305979 2.637193 8.530329 -7.465815 0.2519346 21.52576 7.243822 3.362149 -22.67632 7.385551 5.363929 -15.67424 11.86094 89.03794 35.42366 -22.35994 -0 0 10.43634 -10.33486 11.07699 6.24786 4.744533 -19.92051 -2.043587 -92.0651 26.96903 19.70465 0 0 -16.84458 3.377503 14.47637 9.878314
5.892722 100.665 46.93644 0.4659233 1.497453 1.367879 3.064339 -0.1996323 2.477888 0 -4.951373 0 -8.283787 -11.42295 4.904391 -5.078571 -0.1873349 -11.81602 -0 50.58566 -0 -5.751474 -2.809289 10.37672 -0.4955392 -4.11377 6.312311 2.340115 8.918688 -6.765991 0.123638 21.94784 7.010413 3.296901 -21.9918 6.847119 5.484394 -15.74437 12.29943 88.55921 35.54035 -21.40085 -0 0 10.4863 -11.23747 11.48067 6.815388 4.261596 -19.74373 -2.062026 -92.07167 26.47626 20.0941 0 0 -16.28613 3.238225 14.06446 10.00535
